<?xml version="1.0" encoding="UTF-8"?>
<svg xmlns="http://www.w3.org/2000/svg" xmlns:xlink="http://www.w3.org/1999/xlink" width="469.53pt" height="477.67pt" viewBox="0 0 469.53 477.67" version="1.1">
<defs>
<clipPath id="clip1">
  <path d="M 0 58 L 419 58 L 419 477.671875 L 0 477.671875 Z M 0 58 "/>
</clipPath>
<clipPath id="clip2">
  <path d="M 42 311 L 376 311 L 376 477.671875 L 42 477.671875 Z M 42 311 "/>
</clipPath>
<clipPath id="clip3">
  <path d="M 206 265 L 419 265 L 419 477.671875 L 206 477.671875 Z M 206 265 "/>
</clipPath>
<clipPath id="clip4">
  <path d="M 235 0 L 469.53125 0 L 469.53125 369 L 235 369 Z M 235 0 "/>
</clipPath>
</defs>
<g id="surface1">
<path style=" stroke:none;fill-rule:evenodd;fill:rgb(9.411621%,64.312744%,38.038635%);fill-opacity:1;" d="M 0 434.734375 L 0 94.75 C 0 74.992188 16.035156 58.949219 35.800781 58.949219 L 375.777344 58.949219 L 0 434.734375 "/>
<g clip-path="url(#clip1)" clip-rule="nonzero">
<path style=" stroke:none;fill-rule:evenodd;fill:rgb(98.822021%,85.881042%,26.274109%);fill-opacity:1;" d="M 0 441.867188 L 0 434.734375 L 375.777344 58.949219 L 382.910156 58.949219 C 402.679688 58.949219 418.722656 74.992188 418.722656 94.75 L 418.722656 101.894531 L 42.9375 477.671875 L 35.800781 477.671875 C 16.035156 477.671875 0 461.628906 0 441.867188 "/>
</g>
<g clip-path="url(#clip2)" clip-rule="nonzero">
<path style=" stroke:none;fill-rule:evenodd;fill:rgb(32.156372%,51.763916%,76.861572%);fill-opacity:1;" d="M 42.9375 477.671875 L 209.359375 311.253906 L 375.777344 477.671875 Z M 42.9375 477.671875 "/>
</g>
<g clip-path="url(#clip3)" clip-rule="nonzero">
<path style=" stroke:none;fill-rule:evenodd;fill:rgb(100%,100%,100%);fill-opacity:1;" d="M 375.777344 477.671875 L 206.8125 308.707031 L 249.757813 265.769531 L 418.722656 434.734375 L 418.722656 441.867188 C 418.722656 461.628906 402.679688 477.671875 382.910156 477.671875 L 375.777344 477.671875 "/>
</g>
<path style=" stroke:none;fill-rule:evenodd;fill:rgb(76.077271%,76.077271%,75.68512%);fill-opacity:1;" d="M 418.722656 434.734375 L 252.296875 268.308594 L 418.722656 101.894531 Z M 418.722656 434.734375 "/>
<path style=" stroke:none;fill-rule:nonzero;fill:rgb(91.398621%,91.398621%,90.99884%);fill-opacity:1;" d="M 74.683594 105.238281 C 95.988281 95.484375 122.640625 99.464844 139.945313 115.421875 C 134.535156 120.941406 128.972656 126.328125 123.410156 131.699219 C 106.105469 114.523438 73.59375 122.671875 65.484375 145.390625 C 54.875 167.742188 72.503906 197.132813 97.445313 197.453125 C 113.765625 199.355469 130.042969 188.425781 133.484375 172.171875 C 122.085938 172.191406 110.703125 172.085938 99.324219 172.253906 C 99.003906 165.238281 98.960938 158.203125 99.113281 151.164063 C 118.148438 151.65625 137.65625 150.074219 156.417969 151.933594 C 157.851563 165.859375 156.867188 180.640625 149.378906 192.855469 C 137.636719 214.714844 109.914063 224.257813 86.449219 218.738281 C 57.441406 212.726563 35.730469 182.972656 39.6875 153.496094 C 41.722656 132.703125 55.773438 113.859375 74.683594 105.238281 "/>
<g clip-path="url(#clip4)" clip-rule="nonzero">
<path style=" stroke:none;fill-rule:nonzero;fill:rgb(87.5%,33.299255%,28.199768%);fill-opacity:1;" d="M 342.9375 74.132813 C 326.839844 77.722656 313.335938 91.960938 311.976563 108.617188 C 310.285156 124.128906 319.367188 139.871094 333.269531 146.71875 C 348.34375 154.691406 368.132813 152.25 380.722656 140.726563 C 392.472656 130.328125 396.753906 112.378906 390.617188 97.847656 C 383.351563 79.664063 361.785156 69.3125 342.9375 74.132813 Z M 345.585938 0.00390625 L 359.199219 0.00390625 C 393.121094 1.945313 426.292969 18.519531 446.855469 45.785156 C 460.320313 63.007813 467.835938 84.382813 469.523438 106.09375 L 469.523438 114.152344 C 468.730469 156.238281 441.804688 190.785156 418.484375 223.519531 C 392.308594 260.511719 368.113281 300.820313 361.410156 346.414063 C 359.617188 354.136719 361.765625 364.949219 352.539063 368.4375 C 350.367188 366.746094 347.84375 365.347656 346.316406 362.988281 C 343.582031 337.5 337.214844 312.324219 326.339844 289.046875 C 314.003906 261.929688 296.820313 237.421875 279.371094 213.433594 C 268.742188 199.050781 258.722656 184.167969 250.4375 168.304688 C 237.410156 144.523438 232.566406 116.425781 237.890625 89.746094 C 242.253906 68.683594 253.277344 49.164063 268.535156 34.074219 C 289.097656 13.96875 316.902344 1.800781 345.585938 0.00390625 "/>
</g>
<path style=" stroke:none;fill-rule:nonzero;fill:rgb(47.799683%,16.899109%,16.899109%);fill-opacity:1;" d="M 342.9375 74.132813 C 361.785156 69.3125 383.351563 79.664063 390.617188 97.847656 C 396.753906 112.378906 392.472656 130.328125 380.722656 140.726563 C 368.132813 152.25 348.34375 154.691406 333.269531 146.71875 C 319.367188 139.871094 310.285156 124.128906 311.976563 108.617188 C 313.335938 91.960938 326.839844 77.722656 342.9375 74.132813 "/>
</g>
</svg>
